HIERARCHY
ROOT Hips
{
  OFFSET -4.35178 90.3298 111.633
  CHANNELS 6 Xposition Yposition Zposition Zrotation Xrotation Yrotation
  JOINT LeftUpLeg
  {
    OFFSET 0.103456 1.85784 10.5485
    CHANNELS 6 Xposition Yposition Zposition Zrotation Xrotation Yrotation
    JOINT LeftLeg
    {
      OFFSET 43.5 -4.2e-05 0
      CHANNELS 6 Xposition Yposition Zposition Zrotation Xrotation Yrotation
      JOINT LeftFoot
      {
        OFFSET 42.3722 1.9e-05 0
        CHANNELS 6 Xposition Yposition Zposition Zrotation Xrotation Yrotation
        JOINT LeftToe
        {
          OFFSET 17.3 0 0
          CHANNELS 6 Xposition Yposition Zposition Zrotation Xrotation Yrotation
          End Site
          {
            OFFSET 0 0 0
          }
        }
      }
    }
  }
  JOINT RightUpLeg
  {
    OFFSET 0.103456 1.85782 -10.5485
    CHANNELS 6 Xposition Yposition Zposition Zrotation Xrotation Yrotation
    JOINT RightLeg
    {
      OFFSET 43.5 -2.7e-05 0
      CHANNELS 6 Xposition Yposition Zposition Zrotation Xrotation Yrotation
      JOINT RightFoot
      {
        OFFSET 42.3723 0 0
        CHANNELS 6 Xposition Yposition Zposition Zrotation Xrotation Yrotation
        JOINT RightToe
        {
          OFFSET 17.3 0 1.7e-05
          CHANNELS 6 Xposition Yposition Zposition Zrotation Xrotation Yrotation
          End Site
          {
            OFFSET 0 0 0
          }
        }
      }
    }
  }
  JOINT Spine
  {
    OFFSET 6.90197 -2.60373 0
    CHANNELS 6 Xposition Yposition Zposition Zrotation Xrotation Yrotation
    JOINT Spine1
    {
      OFFSET 12.5881 0 0
      CHANNELS 6 Xposition Yposition Zposition Zrotation Xrotation Yrotation
      JOINT Spine2
      {
        OFFSET 12.3432 -1.8e-05 0
        CHANNELS 6 Xposition Yposition Zposition Zrotation Xrotation Yrotation
        JOINT Neck
        {
          OFFSET 25.8329 2.3e-05 0
          CHANNELS 6 Xposition Yposition Zposition Zrotation Xrotation Yrotation
          JOINT Head
          {
            OFFSET 11.7666 0 0
            CHANNELS 6 Xposition Yposition Zposition Zrotation Xrotation Yrotation
            End Site
            {
              OFFSET 0 0 0
            }
          }
        }
        JOINT LeftShoulder
        {
          OFFSET 19.7459 -1.48035 6.0001
          CHANNELS 6 Xposition Yposition Zposition Zrotation Xrotation Yrotation
          JOINT LeftArm
          {
            OFFSET 11.2841 1.8e-05 -2e-05
            CHANNELS 6 Xposition Yposition Zposition Zrotation Xrotation Yrotation
            JOINT LeftForeArm
            {
              OFFSET 33 -1.3e-05 1.9e-05
              CHANNELS 6 Xposition Yposition Zposition Zrotation Xrotation Yrotation
              JOINT LeftHand
              {
                OFFSET 25.2 3.2e-05 1.1e-05
                CHANNELS 6 Xposition Yposition Zposition Zrotation Xrotation Yrotation
                End Site
                {
                  OFFSET 0 0 0
                }
              }
            }
          }
        }
        JOINT RightShoulder
        {
          OFFSET 19.7461 -1.48036 -6.00008
          CHANNELS 6 Xposition Yposition Zposition Zrotation Xrotation Yrotation
          JOINT RightArm
          {
            OFFSET 11.2841 0 0
            CHANNELS 6 Xposition Yposition Zposition Zrotation Xrotation Yrotation
            JOINT RightForeArm
            {
              OFFSET 33.0001 1.6e-05 0
              CHANNELS 6 Xposition Yposition Zposition Zrotation Xrotation Yrotation
              JOINT RightHand
              {
                OFFSET 25.1998 0.000123 0.000432
                CHANNELS 6 Xposition Yposition Zposition Zrotation Xrotation Yrotation
                End Site
                {
                  OFFSET 0 0 0
                }
              }
            }
          }
        }
      }
    }
  }
}
MOTION
Frames:	4
Frame Time:	0.0333333
-62.8265 89.8359 -133.669 -23.7428 -85.0611 -111.752 0.103456 1.85784 10.5485 6.41266 11.9481 -179.361 43.5 -4.2e-05 1e-05 -13.8891 -9.79241 -3.48402 42.3722 1.9e-05 -7.10543e-15 79.387 2.41774 -2.3124 17.3 -7.10543e-15 3e-06 21.4546 -1e-06 0.003093 0.103456 1.85782 -10.5485 9.59655 0.930473 173.59 43.5 -2.7e-05 4e-06 -7.01342 7.96751 2.95873 42.3723 0 1e-05 82.7898 15.3877 -5.47108 17.3 -6e-06 1.7e-05 21.4546 -1.9e-05 -0.003116 6.90197 -2.60373 -3e-06 7.33959 1.37473 0.374506 12.5881 1e-05 8e-06 4.62776 2.85378 0.549635 12.3432 -1.8e-05 -5e-06 4.26878 2.94936 0.38381 25.8329 2.3e-05 7e-06 3.04749 1.87649 -3.07579 11.7666 -8e-06 -6e-06 -31.8979 -6.90535 12.2786 19.7459 -1.48035 6.0001 175.72 -7.35581 -102.976 11.2841 1.8e-05 -2e-05 -1.66909 -29.7503 34.3433 33 -1.3e-05 1.9e-05 -13.0026 11.7317 -17.3647 25.2 3.2e-05 1.1e-05 -1.2241 30.226 4.15033 19.7461 -1.48036 -6.00008 -170.909 -5.97177 80.4152 11.2841 -1.42109e-14 -1e-06 25.1401 5.18159 -4.79454 33.0001 1.6e-05 -1e-06 -37.8232 8.85021 23.382 25.1998 0.000123 0.000432 23.794 -10.7915 6.11139 
-62.8281 89.8383 -133.681 -22.8964 -85.0945 -110.885 0.103456 1.85784 10.5485 6.41199 11.9481 -179.358 43.5 -4.2e-05 1e-05 -13.9046 -9.7802 -3.4839 42.3722 1.9e-05 1.42109e-14 79.42 2.48459 -2.3333 17.3 0 3e-06 21.4546 -1e-06 0.003093 0.103456 1.85782 -10.5485 9.59665 0.948926 173.59 43.5 -2.7e-05 4e-06 -7.09042 8.00268 2.95899 42.3723 0 1e-05 82.8746 15.4339 -5.51498 17.3 -6e-06 1.7e-05 21.4546 -1.9e-05 -0.003116 6.90197 -2.60373 -3e-06 7.34341 1.35144 0.374502 12.5881 1e-05 8e-06 4.6354 2.80834 0.565813 12.3432 -1.8e-05 -5e-06 4.27688 2.90512 0.40276 25.8329 2.3e-05 7e-06 3.05899 1.72184 -2.9963 11.7666 -8e-06 -6e-06 -31.7033 -7.09929 12.2243 19.7459 -1.48035 6.0001 175.697 -7.42924 -102.935 11.2841 1.8e-05 -2e-05 -1.69141 -29.7151 34.3699 33 -1.3e-05 1.9e-05 -13.0368 11.7132 -17.3347 25.2 3.2e-05 1.1e-05 -1.21774 30.2244 4.14016 19.7461 -1.48036 -6.00008 -170.937 -5.98866 80.4421 11.2841 1.42109e-14 -1e-06 25.0611 5.18481 -4.78259 33.0001 1.6e-05 -1e-06 -37.8183 8.84194 23.3922 25.1998 0.000123 0.000432 23.7774 -10.7916 6.10523 
-62.8269 89.8413 -133.721 -22.0413 -85.1291 -110.007 0.103456 1.85784 10.5485 6.40932 11.9558 -179.345 43.5 -4.2e-05 1e-05 -13.9268 -9.75445 -3.48363 42.3722 1.9e-05 7.10543e-15 79.4462 2.52076 -2.37232 17.3 -7.10543e-15 3e-06 21.4546 -1e-06 0.003093 0.103456 1.85782 -10.5485 9.58899 0.975017 173.587 43.5 -2.7e-05 4e-06 -7.18753 8.04388 2.95929 42.3723 0 1e-05 82.9754 15.4538 -5.57616 17.3 -6e-06 1.7e-05 21.4546 -1.9e-05 -0.003116 6.90197 -2.60373 -3e-06 7.3505 1.32243 0.374498 12.5881 1e-05 8e-06 4.64967 2.75169 0.58422 12.3432 -1.8e-05 -5e-06 4.29176 2.84994 0.42463 25.8329 2.3e-05 7e-06 3.05375 1.52421 -2.88857 11.7666 -8e-06 -6e-06 -31.4697 -7.34502 12.1464 19.7459 -1.48035 6.0001 175.675 -7.50313 -102.893 11.2841 1.8e-05 -2e-05 -1.67863 -29.6934 34.4253 33 -1.3e-05 1.9e-05 -13.055 11.6719 -17.324 25.2 3.2e-05 1.1e-05 -1.23229 30.2073 4.12284 19.7461 -1.48036 -6.00008 -170.908 -6.04309 80.4378 11.2841 1.42109e-14 -1e-06 25.0216 5.14225 -4.73298 33.0001 1.6e-05 -1e-06 -37.8282 8.84242 23.3695 25.1998 0.000123 0.000432 23.6741 -10.7855 6.08612 
-62.8235 89.8427 -133.754 -21.341 -85.1698 -109.279 0.103456 1.85784 10.5485 6.41145 11.9848 -179.357 43.5 -4.2e-05 1e-05 -13.9242 -9.72596 -3.48333 42.3722 1.9e-05 -7.10543e-15 79.4354 2.56062 -2.41982 17.3 7.10543e-15 3e-06 21.4546 -1e-06 0.003093 0.103456 1.85782 -10.5485 9.58814 0.995985 173.577 43.5 -2.7e-05 4e-06 -7.23768 8.07965 2.96875 42.3723 0 1e-05 83.054 15.4947 -5.61926 17.3 -6e-06 1.7e-05 21.4546 -1.9e-05 -0.003116 6.90197 -2.60373 -3e-06 7.35675 1.29376 0.37597 12.5881 1e-05 8e-06 4.6628 2.69488 0.591068 12.3432 -1.8e-05 -5e-06 4.30552 2.79387 0.43496 25.8329 2.3e-05 7e-06 3.05676 1.2857 -2.75236 11.7666 -8e-06 -6e-06 -31.2365 -7.66148 12.0673 19.7459 -1.48035 6.0001 175.622 -7.60084 -102.836 11.2841 1.8e-05 -2e-05 -1.62375 -29.6727 34.4593 33 -1.3e-05 1.9e-05 -13.1806 11.6329 -17.2824 25.2 3.2e-05 1.1e-05 -1.19478 30.1914 4.12871 19.7461 -1.48036 -6.00008 -170.898 -6.10137 80.4613 11.2841 0 -1e-06 24.9861 5.15263 -4.73476 33.0001 1.6e-05 -1e-06 -37.798 8.88885 23.3605 25.1998 0.000123 0.000432 23.73 -10.7641 6.1006 
